<svg width="25" height="25" viewBox="0 0 25 25" fill="none" xmlns="http://www.w3.org/2000/svg">
<path d="M8.59375 4.6876V2.34229C8.59375 2.13508 8.67606 1.93637 8.82257 1.78986C8.96909 1.64335 9.1678 1.56104 9.375 1.56104H15.625C15.8322 1.56104 16.0309 1.64335 16.1774 1.78986C16.3239 1.93637 16.4062 2.13508 16.4062 2.34229V4.6876H22.6562C22.8635 4.6876 23.0622 4.76991 23.2087 4.91642C23.3552 5.06293 23.4375 5.26165 23.4375 5.46885C23.4375 5.67605 23.3552 5.87476 23.2087 6.02127C23.0622 6.16779 22.8635 6.2501 22.6562 6.2501H2.34375C2.13655 6.2501 1.93784 6.16779 1.79132 6.02127C1.64481 5.87476 1.5625 5.67605 1.5625 5.46885C1.5625 5.26165 1.64481 5.06293 1.79132 4.91642C1.93784 4.76991 2.13655 4.6876 2.34375 4.6876H8.59375ZM10.1562 4.6876H14.8438V3.1251H10.1562V4.6876ZM4.6875 23.4376C4.4803 23.4376 4.28159 23.3553 4.13507 23.2088C3.98856 23.0623 3.90625 22.8636 3.90625 22.6563V6.2501H21.0938V22.6563C21.0938 22.8636 21.0114 23.0623 20.8649 23.2088C20.7184 23.3553 20.5197 23.4376 20.3125 23.4376H4.6875ZM10.1562 18.7501C10.3635 18.7501 10.5622 18.6678 10.7087 18.5213C10.8552 18.3748 10.9375 18.176 10.9375 17.9688V10.1563C10.9375 9.94915 10.8552 9.75043 10.7087 9.60392C10.5622 9.45741 10.3635 9.3751 10.1562 9.3751C9.94905 9.3751 9.75034 9.45741 9.60382 9.60392C9.45731 9.75043 9.375 9.94915 9.375 10.1563V17.9688C9.375 18.176 9.45731 18.3748 9.60382 18.5213C9.75034 18.6678 9.94905 18.7501 10.1562 18.7501ZM14.8438 18.7501C15.051 18.7501 15.2497 18.6678 15.3962 18.5213C15.5427 18.3748 15.625 18.176 15.625 17.9688V10.1563C15.625 9.94915 15.5427 9.75043 15.3962 9.60392C15.2497 9.45741 15.051 9.3751 14.8438 9.3751C14.6365 9.3751 14.4378 9.45741 14.2913 9.60392C14.1448 9.75043 14.0625 9.94915 14.0625 10.1563V17.9688C14.0625 18.176 14.1448 18.3748 14.2913 18.5213C14.4378 18.6678 14.6365 18.7501 14.8438 18.7501Z" fill="black"/>
</svg>
