<svg width="45" height="50" viewBox="0 0 45 50" fill="none" xmlns="http://www.w3.org/2000/svg">
<path d="M43.3931 25C43.3931 26.7275 41.9537 28.126 40.1788 28.126H25.7146V42.1885C25.7146 43.916 24.2752 45.3125 22.5003 45.3125C20.7254 45.3125 19.286 43.916 19.286 42.1885V28.126H4.82171C3.04682 28.126 1.60742 26.7275 1.60742 25C1.60742 23.2725 3.04682 21.876 4.82171 21.876H19.286V7.81348C19.286 6.08594 20.7254 4.6875 22.5003 4.6875C24.2752 4.6875 25.7146 6.08594 25.7146 7.81348V21.876H40.1788C41.9568 21.875 43.3931 23.2715 43.3931 25Z" fill="black"/>
</svg>
