<svg width="25" height="25" viewBox="0 0 25 25" fill="none" xmlns="http://www.w3.org/2000/svg">
<path d="M14.0504 0C8.00295 0 3.09996 4.78442 3.09996 10.6866C3.09996 12.7838 3.71869 14.74 4.78806 16.3906C4.78021 16.3939 4.7725 16.3969 4.76462 16.4004L0 21.0498L4.0474 25L8.98362 20.1815C8.98215 20.1747 8.98016 20.1679 8.97863 20.1611C10.4949 20.9359 12.2203 21.3741 14.0504 21.3741C20.0979 21.3741 25 16.5889 25 10.6867C24.9999 4.78442 20.0978 0 14.0504 0ZM14.0504 4.74744C17.4111 4.74744 20.1349 7.40658 20.1349 10.6866C20.1349 13.9667 17.4111 16.6258 14.0504 16.6258C10.6897 16.6258 7.96506 13.9667 7.96506 10.6866C7.96506 7.40658 10.6896 4.74744 14.0504 4.74744Z" fill="black"/>
</svg>
